<svg xmlns="http://www.w3.org/2000/svg"  viewBox="0 0 48 48" width="48px" height="48px"><path fill="#283d5b" d="M43.88,26.68c-0.05,2.29-0.01,6.86,0,9.14c0.01,4.73-1.73,7.86-8.16,8.17 c-3.09,0.14-7.82,0.58-12.8,0.55c-2.81-0.01-10.21,0.18-10.21,0.18c-4.73,0-8.45-3.76-9.05-8.46c-0.02-0.14-0.04-0.3-0.06-0.47 c-0.23-1.72-0.68-4.64-0.52-6c0.4-3.2-0.21-8.01-0.08-9.33c0.62-5.99,0.32-6.24,0.08-8.31c-0.53-4.7,3.84-8.79,8.57-8.56 c4.11,0.2,12.31,1.22,16.44,0.85c3.11-0.27,5.41-0.72,7.23-0.85c4.71-0.33,8.53,2.54,8.56,8.56v0.09c0.03,1.59,0.58,3.53,0.53,6.34 C44.34,22.05,43.91,25.12,43.88,26.68z"/><path fill="#1e4384" d="M43.88,12.15v0.09l-21.44,8.57L3.6,35.79c-0.23-1.72-0.68-4.64-0.52-6c0.4-3.2-0.21-8.01-0.08-9.33 c0.62-5.99,0.32-6.24,0.08-8.31c-0.53-4.7,3.84-8.79,8.57-8.56c4.11,0.2,12.31,1.22,16.44,0.85c3.11-0.27,5.41-0.72,7.23-0.85 C40.03,3.26,43.85,6.13,43.88,12.15z"/><path fill="#010101" d="M12.718,45.215c-4.812,0-8.912-3.822-9.549-8.889c-0.038-0.303-0.089-0.671-0.146-1.078 c-0.25-1.792-0.593-4.247-0.434-5.524c0.243-1.95,0.094-4.603-0.014-6.541c-0.07-1.252-0.125-2.241-0.07-2.775 c0.516-5.003,0.388-5.929,0.195-7.331c-0.037-0.265-0.075-0.545-0.112-0.869C2.333,9.977,3.13,7.692,4.774,5.939 c1.79-1.908,4.371-2.968,6.896-2.849c1.284,0.063,2.983,0.208,4.781,0.36c3.917,0.332,8.791,0.745,11.596,0.496 c1.625-0.145,3.025-0.336,4.26-0.506c1.125-0.155,2.097-0.288,2.974-0.349c2.527-0.177,4.811,0.548,6.421,2.041 c1.734,1.608,2.659,4.035,2.675,7.017c0.003,0.624,0.098,1.313,0.207,2.113c0.167,1.215,0.354,2.592,0.32,4.324 c-0.042,2.096-0.212,4.042-0.349,5.606c-0.089,1.015-0.165,1.891-0.178,2.499c-0.038,1.801-0.021,5.06-0.008,7.439l0.008,1.69 c0.02,5.707-2.644,8.379-8.636,8.665l0,0c-0.854,0.041-1.834,0.104-2.909,0.173c-2.806,0.181-6.296,0.4-9.919,0.384 C20.14,45.031,12.792,45.213,12.718,45.215z M11.267,4.081c-2.124,0-4.255,0.935-5.763,2.542c-1.464,1.561-2.147,3.504-1.923,5.472 c0.036,0.316,0.074,0.588,0.109,0.846c0.203,1.473,0.336,2.447-0.191,7.57c-0.047,0.456,0.009,1.458,0.074,2.617 c0.116,2.085,0.261,4.68,0.007,6.72c-0.143,1.146,0.204,3.623,0.433,5.262c0.057,0.412,0.109,0.784,0.148,1.091 c0.575,4.569,4.248,8.014,8.544,8.014c0.061-0.001,7.438-0.179,10.214-0.173c3.582,0.024,7.059-0.202,9.849-0.382 c1.082-0.069,2.066-0.133,2.926-0.174l0,0c5.475-0.261,7.701-2.48,7.684-7.662l-0.008-1.688c-0.013-2.385-0.03-5.651,0.008-7.465 c0.013-0.641,0.091-1.533,0.182-2.565c0.135-1.549,0.304-3.477,0.345-5.54c0.034-1.653-0.149-2.989-0.311-4.168 c-0.114-0.834-0.212-1.555-0.216-2.243c-0.015-2.699-0.829-4.873-2.355-6.289c-1.425-1.322-3.389-1.938-5.671-1.776 c-0.843,0.059-1.799,0.19-2.907,0.342c-1.246,0.171-2.659,0.365-4.307,0.511C25.245,5.201,20.53,4.8,16.368,4.447 c-1.79-0.151-3.479-0.295-4.747-0.357C11.503,4.083,11.385,4.081,11.267,4.081z"/><path fill="#ef4823" d="M20.472,12.519c0,0-0.888,0.022-1.804,0.022c-0.917,0-0.917-0.103-1.834-0.103 c-0.917,0-1.868,0.02-1.868,0.02s-0.143,0.916-0.333,1.788c-0.19,0.873-0.145,0.883-0.334,1.756 c-0.19,0.873-0.461,1.75-0.461,1.75s0.733-0.212,1.452-0.364c0.72-0.152,0.718-0.163,1.439-0.315 c0.722-0.153,0.744-0.047,1.466-0.2s1.48-0.319,1.48-0.319s-0.032-1.109,0.393-2.044C20.519,13.518,20.472,12.519,20.472,12.519z"/><path fill="#010101" d="M13.839,18.251c-0.132,0-0.262-0.053-0.357-0.15c-0.129-0.131-0.175-0.322-0.121-0.498 c0.002-0.008,0.268-0.868,0.45-1.708c0.092-0.424,0.127-0.639,0.163-0.853c0.037-0.227,0.074-0.454,0.172-0.903 c0.187-0.857,0.327-1.758,0.327-1.758c0.038-0.239,0.241-0.417,0.483-0.423c0,0,0.956-0.02,1.878-0.02 c0.486,0,0.729,0.027,0.973,0.054c0.215,0.024,0.431,0.048,0.861,0.048c0.909,0,1.79-0.021,1.792-0.021 c0.288,0.007,0.499,0.206,0.512,0.477c0.002,0.045,0.046,1.131-0.448,2.22c-0.373,0.82-0.349,1.813-0.348,1.823 c0.007,0.24-0.158,0.451-0.393,0.502c0,0-0.76,0.167-1.484,0.32c-0.396,0.084-0.601,0.097-0.805,0.109 c-0.167,0.011-0.335,0.021-0.661,0.09c-0.357,0.075-0.535,0.116-0.712,0.156c-0.182,0.041-0.363,0.082-0.727,0.159 c-0.699,0.148-1.411,0.354-1.417,0.355C13.932,18.245,13.885,18.251,13.839,18.251z M15.392,12.951 c-0.061,0.354-0.157,0.885-0.269,1.401c-0.092,0.424-0.127,0.638-0.163,0.852c-0.037,0.228-0.074,0.455-0.172,0.904 c-0.071,0.327-0.153,0.653-0.228,0.935c0.197-0.049,0.413-0.099,0.626-0.145c0.357-0.075,0.535-0.116,0.712-0.156 c0.182-0.041,0.363-0.082,0.727-0.159c0.396-0.084,0.601-0.097,0.805-0.109c0.167-0.011,0.335-0.021,0.661-0.09 c0.399-0.084,0.809-0.173,1.096-0.235c0.029-0.447,0.124-1.179,0.426-1.846c0.21-0.463,0.298-0.935,0.335-1.273 c-0.341,0.005-0.807,0.011-1.28,0.011c-0.486,0-0.729-0.027-0.973-0.054c-0.215-0.024-0.431-0.048-0.861-0.048 C16.299,12.938,15.752,12.945,15.392,12.951z"/><path fill="#f3ad20" d="M25.436,15.339c0,0,0.095-0.746,0.247-1.445s0.284-1.359,0.284-1.359s-0.884-0.098-1.799-0.098 c-0.917,0-0.917,0.07-1.834,0.07c-0.917,0-1.846-0.02-1.846-0.02s-0.22,1.014-0.438,2.018s-0.393,1.992-0.393,1.992 s0.677-0.191,1.396-0.343c0.72-0.152,0.727-0.123,1.447-0.275c0.722-0.153,0.711-0.295,1.448-0.31 C24.735,15.551,25.436,15.339,25.436,15.339z"/><path fill="#010101" d="M19.657,16.997c-0.123,0-0.242-0.045-0.335-0.129c-0.127-0.115-0.187-0.289-0.157-0.458 c0,0,0.177-0.998,0.397-2.011L20,12.381c0.051-0.234,0.262-0.382,0.5-0.395c0.002,0,0.924,0.02,1.835,0.02 c0.439,0,0.659-0.017,0.879-0.034c0.239-0.018,0.478-0.036,0.955-0.036c0.933,0,1.817,0.097,1.854,0.101 c0.139,0.016,0.266,0.089,0.349,0.202c0.083,0.113,0.114,0.256,0.086,0.393c0,0-0.133,0.665-0.286,1.367 c-0.147,0.675-0.239,1.396-0.24,1.402c-0.025,0.196-0.163,0.358-0.352,0.415c-0.031,0.01-0.776,0.231-1.621,0.25 c-0.378,0.008-0.495,0.048-0.708,0.12c-0.159,0.054-0.344,0.116-0.648,0.18c-0.372,0.079-0.559,0.11-0.746,0.142 c-0.176,0.03-0.353,0.06-0.701,0.133c-0.699,0.148-1.358,0.333-1.363,0.335C19.748,16.99,19.703,16.997,19.657,16.997z M20.89,12.994l-0.35,1.617c-0.094,0.43-0.179,0.857-0.246,1.204c0.201-0.049,0.426-0.102,0.656-0.15 c0.369-0.078,0.556-0.109,0.742-0.141c0.177-0.03,0.354-0.06,0.705-0.135c0.251-0.053,0.404-0.105,0.536-0.149 c0.255-0.086,0.476-0.16,1.006-0.172c0.407-0.008,0.795-0.076,1.051-0.131c0.043-0.291,0.115-0.728,0.206-1.147 c0.063-0.29,0.123-0.573,0.171-0.804c-0.326-0.024-0.759-0.047-1.197-0.047c-0.439,0-0.659,0.017-0.879,0.034 c-0.239,0.018-0.478,0.036-0.955,0.036C21.793,13.007,21.248,13,20.89,12.994z"/><path fill="#d6e5e5" d="M18.815,20.171c-0.311,2.115-1.663,4.923-2.549,7.45c-0.939,2.679-0.238,5.364-0.898,7.992 c0.74-0.091,5.626,0.171,5.675-0.333c0.203-2.096,0.81-4.124,1.256-6.174c0.386-1.777,1.273-3.503,1.35-5.339 c0.084-2.011,1.002-3.769,1.091-5.743C22.903,18.972,20.473,18.862,18.815,20.171z"/><path fill="#010101" d="M15.368,36.113c-0.143,0-0.279-0.061-0.375-0.169c-0.109-0.124-0.15-0.293-0.11-0.453 c0.285-1.136,0.303-2.28,0.322-3.491c0.024-1.477,0.048-3.004,0.588-4.544c0.282-0.806,0.612-1.641,0.94-2.472 c0.679-1.719,1.381-3.497,1.586-4.885c0.019-0.126,0.084-0.241,0.185-0.32c1.036-0.818,2.311-1.12,3.544-1.412 c0.89-0.21,1.73-0.41,2.462-0.787c0.158-0.082,0.349-0.073,0.499,0.023c0.15,0.096,0.238,0.265,0.23,0.443 c-0.046,1.033-0.306,2.002-0.558,2.94c-0.253,0.947-0.493,1.841-0.533,2.801c-0.051,1.208-0.427,2.355-0.79,3.464 c-0.221,0.674-0.43,1.311-0.571,1.96c-0.127,0.586-0.269,1.172-0.409,1.757c-0.342,1.422-0.696,2.894-0.838,4.358 c-0.061,0.629-0.709,0.774-3.466,0.774l-1.956-0.011c-0.321,0-0.567,0.003-0.689,0.018C15.409,36.111,15.388,36.113,15.368,36.113z M16.118,35.091l1.956,0.011c1.574,0,2.228-0.063,2.497-0.118c0.162-1.449,0.503-2.871,0.835-4.248 c0.139-0.578,0.278-1.156,0.404-1.736c0.152-0.7,0.379-1.391,0.598-2.06c0.358-1.092,0.696-2.124,0.741-3.194 c0.044-1.069,0.31-2.06,0.566-3.018c0.174-0.65,0.342-1.275,0.44-1.909c-0.612,0.221-1.252,0.373-1.877,0.521 c-1.111,0.263-2.164,0.512-3.002,1.11c-0.253,1.462-0.943,3.209-1.612,4.901c-0.324,0.819-0.649,1.641-0.927,2.436 c-0.486,1.387-0.508,2.768-0.532,4.229c-0.016,1.006-0.033,2.041-0.216,3.076C16.031,35.092,16.074,35.091,16.118,35.091z"/><path fill="#cbdb2d" d="M31.16,14.076l0.328-1.565c0,0-0.903,0.002-1.819,0.002c-0.917,0-0.917-0.02-1.834-0.02 c-0.917,0-1.83,0.014-1.83,0.014s-0.119,0.699-0.271,1.398s-0.345,1.393-0.345,1.393s0.719-0.172,1.438-0.324 c0.72-0.152,0.722-0.148,1.442-0.3c0.722-0.153,0.71-0.233,1.447-0.256C30.486,14.394,31.16,14.076,31.16,14.076z"/><path fill="#010101" d="M25.389,15.798c-0.134,0-0.265-0.054-0.36-0.153c-0.123-0.127-0.169-0.311-0.122-0.481 c0.001-0.004,0.19-0.683,0.338-1.365c0.149-0.686,0.266-1.372,0.267-1.376c0.04-0.237,0.244-0.412,0.485-0.416 c0,0,0.916-0.014,1.837-0.014c0.464,0,0.696,0.005,0.928,0.01c0.227,0.005,0.453,0.01,0.906,0.01l1.818-0.001c0,0,0,0,0.001,0 c0.15,0,0.293,0.068,0.388,0.185c0.095,0.117,0.133,0.271,0.102,0.418l-0.328,1.564c-0.032,0.153-0.134,0.283-0.276,0.35 c-0.031,0.015-0.777,0.362-1.641,0.389c-0.44,0.014-0.557,0.044-0.812,0.113c-0.137,0.037-0.302,0.081-0.547,0.133l-1.442,0.3 c-0.712,0.15-1.425,0.321-1.425,0.321C25.467,15.794,25.427,15.798,25.389,15.798z M26.424,13.002 c-0.05,0.27-0.122,0.64-0.202,1.01c-0.046,0.211-0.096,0.422-0.143,0.614c0.201-0.045,0.422-0.094,0.643-0.141l1.442-0.3 c0.223-0.047,0.372-0.087,0.496-0.12c0.318-0.085,0.508-0.13,1.04-0.147c0.409-0.013,0.794-0.124,1.025-0.207l0.146-0.699 l-1.204,0.001c-0.464,0-0.696-0.005-0.928-0.01c-0.227-0.005-0.453-0.01-0.906-0.01C27.304,12.993,26.774,12.998,26.424,13.002z"/><g><path fill="#16b7b8" d="M36.907,12.818l0.142-0.404c-1.813-0.13-3.663-0.101-5.551,0.084l-0.329,1.566 c0,0,2.341-0.355,3.061-0.507C34.953,13.404,36.907,12.818,36.907,12.818z"/><path fill="#010101" d="M31.17,14.564c-0.136,0-0.268-0.056-0.363-0.157c-0.113-0.119-0.16-0.286-0.126-0.446l0.329-1.566 c0.045-0.214,0.223-0.374,0.44-0.395c1.909-0.188,3.804-0.216,5.635-0.085c0.155,0.011,0.297,0.094,0.382,0.224 s0.105,0.293,0.054,0.44l-0.142,0.404c-0.053,0.151-0.175,0.267-0.328,0.313c-0.081,0.024-1.983,0.594-2.716,0.749 c-0.726,0.153-2.994,0.498-3.089,0.512C31.22,14.562,31.195,14.564,31.17,14.564z M31.912,12.962l-0.104,0.498 c0.746-0.117,1.869-0.297,2.32-0.392c0.216-0.046,0.552-0.133,0.912-0.232C34.004,12.821,32.965,12.87,31.912,12.962z"/></g><g><path fill="#d6e5e5" d="M26.45,35.545c1.254,0.093,2.469-0.024,3.716-0.024c1.702,0,1.949,0.04,2.325-1.689 c0.492-2.263,0.713-4.567,1.205-6.832c0.973-4.478,2.299-8.932,3.075-13.525c-1.563,0.878-4.686,0.995-5.933,2.248 c-0.793,0.797-1.405,2.333-1.616,3.3c-0.238,1.093-0.553,2.173-0.792,3.274C27.455,26.78,27.385,31.099,26.45,35.545z"/><path fill="#010101" d="M27.512,36.081c-0.364,0-0.73-0.01-1.099-0.037c-0.144-0.011-0.276-0.083-0.362-0.198 c-0.087-0.115-0.12-0.262-0.09-0.403c0.453-2.155,0.707-4.329,0.952-6.432c0.258-2.217,0.526-4.509,1.028-6.82 c0.122-0.558,0.262-1.11,0.402-1.662c0.137-0.537,0.273-1.072,0.39-1.612c0.2-0.919,0.83-2.623,1.75-3.546 c0.824-0.828,2.255-1.19,3.64-1.54c0.93-0.235,1.808-0.458,2.403-0.792c0.168-0.094,0.375-0.084,0.533,0.027 s0.237,0.303,0.206,0.493c-0.484,2.867-1.189,5.71-1.871,8.46c-0.414,1.668-0.841,3.394-1.209,5.087 c-0.243,1.117-0.423,2.271-0.597,3.386c-0.176,1.131-0.359,2.3-0.608,3.447c-0.411,1.891-0.86,2.083-2.601,2.083h-0.213 c-0.441,0-0.879,0.015-1.315,0.03C28.404,36.066,27.959,36.081,27.512,36.081z M27.055,35.075c0.591,0.018,1.176-0.003,1.761-0.023 c0.448-0.015,0.896-0.03,1.349-0.03h0.213c1.342,0,1.342,0,1.623-1.295c0.243-1.118,0.423-2.272,0.598-3.389 c0.176-1.129,0.358-2.298,0.607-3.444c0.372-1.708,0.801-3.44,1.216-5.116c0.604-2.438,1.227-4.949,1.693-7.472 c-0.534,0.187-1.13,0.338-1.749,0.495c-1.252,0.317-2.547,0.645-3.176,1.276c-0.68,0.683-1.271,2.083-1.481,3.053 c-0.12,0.551-0.259,1.098-0.398,1.646c-0.138,0.54-0.275,1.081-0.394,1.627c-0.492,2.263-0.756,4.531-1.012,6.724 C27.68,31.066,27.446,33.067,27.055,35.075z"/></g><g><path fill="#d6e5e5" d="M12.855,22.438c-1.225,4.275-1.247,9.027-2.961,13.158c1.015,0.027,5.522-0.205,5.522-0.205 s0.832-3.919,1.07-5.012c0.365-1.678,0.874-3.375,1.243-5.074c0.378-1.737,0.498-3.453,1.13-5.15 C16.954,21.075,14.641,21.282,12.855,22.438z"/><path fill="#010101" d="M10.091,36.098C10.09,36.098,10.09,36.098,10.091,36.098l-0.21-0.002 c-0.165-0.004-0.317-0.09-0.406-0.228c-0.09-0.138-0.105-0.312-0.042-0.464c0.978-2.355,1.404-4.987,1.815-7.533 c0.299-1.849,0.608-3.761,1.127-5.571c0.033-0.116,0.107-0.216,0.209-0.282c1.078-0.698,2.321-1.064,3.523-1.419 c0.901-0.266,1.752-0.517,2.536-0.896c0.183-0.089,0.403-0.057,0.554,0.081s0.203,0.353,0.132,0.544 c-0.407,1.093-0.593,2.188-0.789,3.347c-0.097,0.576-0.195,1.154-0.321,1.734c-0.187,0.858-0.409,1.716-0.63,2.571 c-0.217,0.838-0.434,1.673-0.614,2.504c-0.237,1.092-1.069,5.01-1.069,5.01c-0.047,0.222-0.237,0.384-0.463,0.396 C15.277,35.898,11.387,36.098,10.091,36.098z M13.284,22.759c-0.472,1.7-0.765,3.515-1.049,5.271 c-0.382,2.359-0.775,4.791-1.607,7.06c1.267-0.029,3.49-0.136,4.379-0.18c0.214-1.008,0.798-3.752,0.99-4.638 c0.184-0.843,0.403-1.691,0.623-2.542c0.218-0.842,0.437-1.687,0.621-2.532c0.123-0.565,0.218-1.128,0.313-1.688 c0.138-0.813,0.278-1.646,0.503-2.48c-0.551,0.2-1.115,0.366-1.667,0.529C15.268,21.889,14.205,22.203,13.284,22.759z"/></g><g><path fill="#d6e5e5" d="M24.839,17.958c-0.156,1.604-0.666,3.196-1.008,4.771c-0.369,1.698-0.552,3.799-1.138,5.385 c-0.594,1.605-0.91,3.505-1.181,5.199c-0.075,0.472-0.709,2.011-0.162,2.164c1.073,0.298,2.213,0.219,3.315,0.219 c0.421,0,1.776,0.092,1.832-0.472c0.114-1.142,0.682-1.93,0.911-2.98c0.379-1.743,0.887-3.801,1.018-5.592 c0.279-3.814,2.063-7.346,2.49-11.07C29.066,16.524,26.467,16.803,24.839,17.958z"/><path fill="#010101" d="M23.511,36.205c-0.73,0-1.514-0.03-2.294-0.247c-0.197-0.055-0.361-0.184-0.462-0.365 c-0.248-0.444-0.087-1.104,0.148-1.921c0.052-0.181,0.1-0.337,0.116-0.438c0.242-1.513,0.573-3.584,1.206-5.293 c0.37-1,0.577-2.245,0.777-3.45c0.107-0.646,0.213-1.281,0.341-1.868c0.109-0.499,0.234-1,0.359-1.503 c0.264-1.055,0.537-2.146,0.641-3.21c0.014-0.144,0.09-0.275,0.208-0.359c0.991-0.704,2.289-1.095,3.543-1.474 c0.903-0.272,1.837-0.554,2.597-0.941c0.165-0.083,0.36-0.07,0.512,0.035c0.151,0.105,0.232,0.285,0.211,0.468 c-0.206,1.796-0.724,3.56-1.224,5.266c-0.551,1.877-1.12,3.818-1.264,5.784c-0.113,1.547-0.501,3.289-0.843,4.825l-0.185,0.836 c-0.106,0.49-0.277,0.917-0.441,1.331c-0.207,0.519-0.402,1.01-0.46,1.594c-0.092,0.927-1.392,0.927-1.881,0.927l-0.449-0.006 L23.511,36.205z M21.626,35.031c0.623,0.151,1.271,0.173,1.884,0.173l1.155-0.009l0.449,0.006c0.583,0,0.813-0.068,0.895-0.105 c0.081-0.688,0.303-1.246,0.518-1.786c0.157-0.393,0.304-0.764,0.393-1.173l0.186-0.841c0.334-1.503,0.714-3.207,0.822-4.681 c0.151-2.071,0.736-4.064,1.302-5.992c0.423-1.442,0.827-2.818,1.064-4.22c-0.617,0.241-1.272,0.438-1.912,0.631 c-1.096,0.331-2.227,0.672-3.07,1.209c-0.125,1.057-0.386,2.104-0.64,3.119c-0.123,0.493-0.246,0.984-0.352,1.473 c-0.125,0.572-0.227,1.19-0.332,1.819c-0.208,1.25-0.423,2.543-0.826,3.632c-0.598,1.618-0.921,3.633-1.156,5.104 c-0.021,0.128-0.076,0.327-0.142,0.557C21.789,34.207,21.627,34.767,21.626,35.031z"/></g></svg>